PathFileType	3	(X/Y/Z)	F:\ViconData\AntennenMessung\Messung1\Session1\ID10.trc
DataRate	CameraRate	NumFrames	NumMarkers	Units	OrigDataRate	OrigDataStartFrame	OrigNumFrames
120.0	120.0	4	70	mm	120.0	470	1251	
Frame#	Time	Ashort			Along			Atop			A4			Bshort			Blong			Btop			B4			Cshort			Clong			Ctop			C4			Dshort			Dlong			Dtop			D4			Eshort			Elong			Etop			E4			Fshort			Flong			Ftop			F4			Gshort			Glong			Gtop			G4			Hshort			Hlong			Htop			H4			I1			I2			I3			I4			I5			WandAshort			WandAlong			WandAtop			WandA4			WandA15			WandBshort			WandB4			WandB5			WandBtop			WandBlong			WandCshort			WandClong			WandCtop			WandC4			WandC5			Acenter			Aantenna			Bcenter			Bantenna			Ccenter			Cantenna			Dcenter			Dantenna			Ecenter			Eantenna			Fcenter			Fantenna			Gcenter			Gantenna			Hcenter			Hantenna			Icenter			Iantenna			
		X1	Y1	Z1	X2	Y2	Z2	X3	Y3	Z3	X4	Y4	Z4	X5	Y5	Z5	X6	Y6	Z6	X7	Y7	Z7	X8	Y8	Z8	X9	Y9	Z9	X10	Y10	Z10	X11	Y11	Z11	X12	Y12	Z12	X13	Y13	Z13	X14	Y14	Z14	X15	Y15	Z15	X16	Y16	Z16	X17	Y17	Z17	X18	Y18	Z18	X19	Y19	Z19	X20	Y20	Z20	X21	Y21	Z21	X22	Y22	Z22	X23	Y23	Z23	X24	Y24	Z24	X25	Y25	Z25	X26	Y26	Z26	X27	Y27	Z27	X28	Y28	Z28	X29	Y29	Z29	X30	Y30	Z30	X31	Y31	Z31	X32	Y32	Z32	X33	Y33	Z33	X34	Y34	Z34	X35	Y35	Z35	X36	Y36	Z36	X37	Y37	Z37	X38	Y38	Z38	X39	Y39	Z39	X40	Y40	Z40	X41	Y41	Z41	X42	Y42	Z42	X43	Y43	Z43	X44	Y44	Z44	X45	Y45	Z45	X46	Y46	Z46	X47	Y47	Z47	X48	Y48	Z48	X49	Y49	Z49	X50	Y50	Z50	X51	Y51	Z51	X52	Y52	Z52	X53	Y53	Z53	X54	Y54	Z54	X55	Y55	Z55	X56	Y56	Z56	X57	Y57	Z57	X58	Y58	Z58	X59	Y59	Z59	X60	Y60	Z60	X61	Y61	Z61	X62	Y62	Z62	X63	Y63	Z63	X64	Y64	Z64	X65	Y65	Z65	X66	Y66	Z66	X67	Y67	Z67	X68	Y68	Z68	X69	Y69	Z69	X70	Y70	Z70	
470	3.9083333	-1038.311	214.6732	-1644.1606	-1109.3204	203.91841	-1599.3546	-1063.8907	172.66096	-1625.3442	-1054.1907	262.19839	-1634.947	-1352.9384	235.16808	1003.7954	-1281.3265	227.20407	1052.3955	-1322.8441	194.11548	1020.8273	-1284.5603	287.95435	1052.7507	813.9541	187.65273	1209.6263	892.67108	179.34422	1178.5754	844.5058	145.55603	1198.1954	860.58942	292.7352	1167.4041	1115.7382	209.81697	-1401.7117	1056.2853	194.20399	-1460.3499	1095.0593	162.28871	-1423.8792	1069.8656	238.74034	-1425.8442	-1204.5229	1685.9634	-1563.255	-1129.1571	1688.2761	-1606.0559	-1173.1473	1724.3997	-1581.938	-1134.0256	1581.0209	-1603.8521	-1239.7639	1699.3676	1119.4915	-1309.1224	1698.4589	1071.7726	-1270.5121	1736.4363	1096.9012	-1245.697	1592.9137	1110.667	988.85736	1664.2767	1162.3213	957.07233	1700.6881	1183.7947	922.67828	1662.0746	1214.9675	939.7868	1659.401	1160.005	999.06512	1668.5405	-1579.4321	1058.6837	1669.9595	-1518.6582	1024.9736	1708.0226	-1551.1166	1059.2311	1672.1342	-1585.4506	31.480183	196.51791	-944.53162	115.52355	203.99644	-932.36768	72.634109	161.2283	-939.82208	72.655922	200.62642	-971.18793	61.754795	198.4416	-892.17841																																														-1069.1434	210.00343	-1624.7056	-1074.5751	248.61769	-1624.0453	-1321.5601	231.67845	1025.0905	-1320.236	270.40735	1029.4861	847.81244	184.07899	1196.2704	851.14374	222.88803	1194.3311	1088.7886	202.73973	-1428.2917	1082.8488	241.05742	-1432.4719	-1171.9073	1686.9641	-1581.7776	-1170.6162	1647.986	-1581.6106	-1270.8491	1698.9602	1098.1047	-1271.1997	1659.9818	1099.3564	953.01978	1705.3302	1186.5322	972.74121	1733.4457	1168.05	1026.3792	1669.1906	-1551.5886	1027.7897	1630.2189	-1552.0625	69.089859	199.86456	-939.0882	65.527847	238.69456	-938.35065
471	3.9166667	-1038.2789	214.74895	-1644.2407	-1109.3186	203.92834	-1599.3495	-1063.6818	173.15665	-1625.6417	-1054.1777	262.22873	-1634.9541	-1353.0898	235.0538	1003.9233	-1281.2932	227.17007	1052.3444	-1322.8214	194.10612	1020.8051	-1284.5829	287.94351	1052.7648	814.0553	187.62805	1209.5985	892.75317	179.37518	1178.5659	844.32513	145.66614	1198.2811	860.58044	292.69775	1167.4391	1115.7371	209.79524	-1401.7213	1056.2767	194.21758	-1460.3418	1095.0769	162.55875	-1424.0398	1069.8612	238.70572	-1425.8564	-1204.5132	1685.9677	-1563.2478	-1129.1663	1688.295	-1606.08	-1173.1571	1724.4073	-1581.9366	-1134.0323	1581.0229	-1603.8357	-1239.7646	1699.3706	1119.498	-1308.2446	1699.623	1068.7961	-1270.5227	1736.4594	1096.903	-1245.7131	1592.9131	1110.6748	988.90845	1664.2952	1162.3223	957.11902	1700.6207	1183.7864	922.81506	1662.0267	1215.0441	939.83588	1659.3978	1159.9707	999.05475	1668.5411	-1579.4492	1058.8495	1670.1641	-1518.6261	1024.9811	1708.0182	-1551.12	1059.2291	1672.1267	-1585.4495	31.471037	196.61671	-944.61951	115.52357	203.92163	-932.31738	72.626068	161.22151	-939.81097	72.666733	200.61847	-971.20978	61.775738	198.43648	-892.17938																																														-1068.8521	210.0921	-1624.9209	-1074.2578	248.7083	-1624.1674	-1321.6287	231.59918	1025.1412	-1320.3969	270.32159	1029.6195	847.60291	184.10997	1196.3698	850.91211	222.9214	1194.4402	1088.765	202.72902	-1428.3123	1082.7446	241.04539	-1432.3876	-1171.912	1686.9746	-1581.7803	-1170.6156	1647.9966	-1581.6177	-1270.5256	1699.484	1096.7228	-1270.5288	1660.4844	1096.5327	953.02441	1705.2996	1186.5511	972.66864	1733.4387	1168.0228	1026.476	1669.2854	-1551.5563	1027.98	1630.3169	-1551.995	69.161606	199.89235	-939.10303	65.682175	238.73032	-938.39197
472	3.925	-1038.2834	214.71289	-1644.2089	-1109.2971	203.95508	-1599.3992	-1063.7452	173.13445	-1625.6099	-1054.1643	262.22723	-1634.9519	-1352.746	235.83023	1003.7661	-1281.4021	227.18959	1052.4464	-1322.8527	194.10443	1020.8634	-1284.6057	287.95691	1052.7332	814.10046	187.66675	1209.6594	892.81732	179.44002	1178.493	844.31396	145.68039	1198.2125	860.66742	292.7197	1167.4388	1115.7311	209.81573	-1401.7174	1056.2504	194.19185	-1460.3475	1095.0532	162.41046	-1423.9515	1069.8827	238.72299	-1425.8158	-1204.5032	1685.9648	-1563.2592	-1129.2046	1688.396	-1606.5724	-1173.1631	1724.4189	-1581.9407	-1134.022	1581.0322	-1603.8704	-1239.7537	1699.3579	1119.4879	-1309.3488	1698.7876	1071.8972	-1270.5089	1736.4454	1096.9001	-1245.7704	1593.2004	1110.7886	988.86536	1664.2709	1162.3088	957.3288	1700.425	1183.7938	922.65161	1662.0935	1214.9912	939.78192	1659.4318	1159.9449	999.07922	1668.53	-1579.4141	1058.8359	1670.1459	-1518.6284	1024.9819	1708.0245	-1551.1204	1059.2289	1672.1306	-1585.4518	31.572311	196.3735	-944.50757	115.53523	203.94147	-932.30121	72.740387	161.73296	-940.19092	72.676224	200.63116	-971.19604	61.703201	198.49763	-892.16937																																														-1068.8909	210.07619	-1624.8956	-1074.2703	248.6962	-1624.1489	-1321.256	232.01637	1025.2527	-1319.6259	270.72372	1029.7341	847.61438	184.16418	1196.3901	850.94324	222.97836	1194.5522	1088.7556	202.73006	-1428.307	1082.7712	241.04526	-1432.4462	-1171.9729	1687.015	-1581.9711	-1170.7327	1648.0348	-1582.0029	-1271.0256	1699.1016	1098.1033	-1271.5651	1660.1255	1099.3593	953.01434	1705.371	1186.733	972.76831	1733.5275	1168.3481	1026.4692	1669.2705	-1551.5522	1027.9647	1630.3016	-1551.9866	69.146255	199.76021	-939.0451	65.478188	238.56972	-937.87585
473	3.9333333	-1038.2571	214.5834	-1644.2141	-1109.308	203.88803	-1599.3867	-1063.851	172.6674	-1625.3855	-1054.2069	262.22549	-1634.9579	-1352.9042	235.32175	1003.7807	-1281.354	227.17194	1052.3345	-1322.8154	194.15332	1020.8185	-1284.537	287.92657	1052.75	814.06	187.60542	1209.6178	892.8064	179.54285	1178.4973	844.4585	145.60141	1198.2299	860.6405	292.69284	1167.4485	1115.7385	209.80373	-1401.6962	1056.1653	194.15187	-1460.2804	1095.1195	162.59261	-1423.965	1069.8409	238.76442	-1425.8402	-1204.511	1685.9521	-1563.2382	-1129.136	1688.264	-1606.0596	-1173.1537	1724.4187	-1581.9496	-1134.0203	1581.0264	-1603.854	-1239.7385	1699.3391	1119.478	-1309.347	1698.842	1071.8916	-1270.4904	1736.4171	1096.8948	-1244.9673	1593.9473	1105.9814	988.90997	1664.2966	1162.3141	957.09033	1700.6422	1183.7842	922.82007	1662.1582	1215.0581	939.76709	1659.3688	1159.972	999.05273	1668.5106	-1579.4034	1058.8346	1670.1505	-1518.6387	1024.9875	1708.019	-1551.1212	1059.2252	1672.123	-1585.4565	31.489588	196.40114	-944.38702	115.52531	203.97615	-932.32953	72.752037	161.73395	-940.25623	72.648788	200.62807	-971.19965	61.777344	198.44608	-892.198																																														-1069.0745	209.94443	-1624.7708	-1074.4858	248.56192	-1624.1339	-1321.4546	231.73953	1025.1222	-1320.0529	270.46133	1029.556	847.65979	184.16525	1196.3392	850.8822	222.98526	1194.4359	1088.7643	202.71672	-1428.2225	1082.6965	241.02675	-1432.2876	-1171.8995	1686.9524	-1581.7648	-1170.5951	1647.9746	-1581.5729	-1271.0356	1699.1155	1098.0822	-1271.6056	1660.1394	1099.3229	952.95459	1705.366	1186.5746	972.57941	1733.5046	1168.025	1026.4707	1669.2627	-1551.5345	1027.9619	1630.2933	-1551.9501	69.138809	199.79485	-938.98505	65.455055	238.59885	-937.68909
